<svg width="594" height="181" viewBox="0 0 594 181" fill="none" xmlns="http://www.w3.org/2000/svg">
<path d="M99.512 99.528H102.008C102.328 101.32 102.616 103.592 102.872 106.344C103.128 109.032 103.192 111.656 103.064 114.216C102.104 114.984 100.952 115.624 99.608 116.136C98.264 116.584 96.824 116.968 95.288 117.288C93.816 117.608 92.28 117.832 90.68 117.96C89.144 118.088 87.672 118.152 86.264 118.152C80.888 118.152 76.088 117.48 71.864 116.136C67.64 114.728 64.056 112.616 61.112 109.8C58.232 106.984 55.992 103.4 54.392 99.048C52.856 94.632 52.088 89.416 52.088 83.4C52.088 77.128 52.952 71.816 54.68 67.464C56.408 63.048 58.744 59.464 61.688 56.712C64.632 53.896 68.056 51.848 71.96 50.568C75.864 49.288 79.96 48.648 84.248 48.648C88.472 48.648 92.024 48.936 94.904 49.512C97.784 50.024 100.312 50.824 102.488 51.912C102.488 52.936 102.456 54.152 102.392 55.56C102.328 56.904 102.232 58.344 102.104 59.88C101.976 61.416 101.816 62.92 101.624 64.392C101.432 65.864 101.24 67.208 101.048 68.424H98.552L93.56 54.6C92.856 54.216 91.672 53.96 90.008 53.832C88.408 53.704 86.808 53.64 85.208 53.64C82.008 53.64 78.968 54.248 76.088 55.464C73.272 56.616 70.776 58.44 68.6 60.936C66.488 63.368 64.792 66.472 63.512 70.248C62.232 73.96 61.592 78.344 61.592 83.4C61.592 87.944 62.168 92.072 63.32 95.784C64.472 99.432 66.136 102.568 68.312 105.192C70.488 107.752 73.144 109.736 76.28 111.144C79.416 112.488 82.968 113.16 86.936 113.16C89.048 113.16 90.808 113 92.216 112.68C93.624 112.36 94.552 111.944 95 111.432L99.512 99.528Z" fill="#3E4588"/>
<path d="M282.32 48.984C280.784 48.664 279.344 48.312 278 47.928C276.656 47.48 275.344 47.032 274.064 46.584V43.8H295.664V46.584C293.808 47.608 291.504 48.408 288.752 48.984L267.056 111L261.776 112.152L237.296 48.984C236.016 48.664 234.768 48.312 233.552 47.928C232.336 47.48 231.152 47.032 230 46.584V43.8H255.44V46.584C254.352 47.032 253.136 47.48 251.792 47.928C250.448 48.312 249.04 48.664 247.568 48.984L263.984 92.856L266 100.536H266.192L268.112 92.664L282.32 48.984ZM324.809 111H300.233V108.216C302.729 107.064 305.289 106.296 307.913 105.912V48.984C306.633 48.728 305.353 48.408 304.073 48.024C302.793 47.576 301.513 47.096 300.233 46.584V43.8H324.809V46.584C323.657 47.096 322.409 47.576 321.065 48.024C319.721 48.408 318.409 48.728 317.129 48.984V105.912C318.473 106.168 319.817 106.488 321.161 106.872C322.505 107.256 323.721 107.704 324.809 108.216V111ZM332.159 111V108.216C334.399 107.192 337.023 106.424 340.031 105.912V48.984C338.559 48.664 337.151 48.312 335.807 47.928C334.463 47.48 333.247 47.032 332.159 46.584V43.8H341.951C343.039 43.8 344.319 43.768 345.791 43.704C347.263 43.64 348.767 43.576 350.303 43.512C351.903 43.384 353.407 43.288 354.815 43.224C356.287 43.096 357.503 43.032 358.463 43.032C369.343 43.032 377.695 45.944 383.519 51.768C389.407 57.592 392.351 65.848 392.351 76.536C392.351 81.592 391.615 86.296 390.143 90.648C388.735 94.936 386.559 98.648 383.615 101.784C380.671 104.92 376.927 107.384 372.383 109.176C367.903 110.968 362.591 111.864 356.447 111.864C355.487 111.864 354.399 111.8 353.183 111.672C351.967 111.608 350.687 111.512 349.343 111.384C347.999 111.32 346.623 111.224 345.215 111.096C343.871 111.032 342.591 111 341.375 111H332.159ZM357.119 48.024C355.455 48.024 353.855 48.056 352.319 48.12C350.783 48.12 349.567 48.216 348.671 48.408V106.584C348.991 106.648 349.567 106.712 350.399 106.776C351.231 106.776 352.127 106.808 353.087 106.872C354.047 106.872 354.943 106.872 355.775 106.872C356.671 106.872 357.311 106.872 357.695 106.872C362.111 106.872 365.855 106.04 368.927 104.376C371.999 102.712 374.495 100.504 376.415 97.752C378.399 94.936 379.839 91.704 380.735 88.056C381.631 84.408 382.079 80.568 382.079 76.536C382.079 73.4 381.631 70.168 380.735 66.84C379.903 63.448 378.495 60.376 376.511 57.624C374.591 54.808 372.031 52.504 368.831 50.712C365.631 48.92 361.727 48.024 357.119 48.024ZM404.16 80.952H431.232V87H404.16V80.952ZM478.925 111H450.893V108.216C452.493 107.512 454.093 106.904 455.693 106.392C457.357 105.816 459.021 105.336 460.685 104.952V57.816L461.069 52.152C459.277 52.856 457.421 53.368 455.501 53.688C453.581 53.944 451.597 54.04 449.549 53.976L449.069 51.672C452.013 50.712 455.053 49.528 458.189 48.12C461.325 46.648 464.237 44.824 466.925 42.648H469.325V104.952C470.925 105.336 472.525 105.816 474.125 106.392C475.725 106.904 477.325 107.512 478.925 108.216V111ZM493.825 64.248C493.825 61.112 494.273 58.232 495.169 55.608C496.129 52.984 497.505 50.712 499.297 48.792C501.153 46.872 503.393 45.368 506.017 44.28C508.705 43.192 511.777 42.648 515.233 42.648C518.945 42.648 522.145 43.288 524.833 44.568C527.585 45.784 529.857 47.512 531.649 49.752C533.441 51.992 534.753 54.744 535.585 58.008C536.417 61.208 536.833 64.76 536.833 68.664C536.833 74.616 535.969 80.12 534.241 85.176C532.513 90.232 530.145 94.68 527.137 98.52C524.193 102.296 520.673 105.368 516.577 107.736C512.545 110.104 508.193 111.576 503.521 112.152L501.793 109.368C505.569 108.344 508.897 106.84 511.777 104.856C514.721 102.872 517.217 100.536 519.265 97.848C521.377 95.096 523.073 92.088 524.353 88.824C525.633 85.496 526.529 82.008 527.041 78.36C525.569 79.896 523.809 81.208 521.761 82.296C519.777 83.32 517.057 83.832 513.601 83.832C510.721 83.832 508.065 83.416 505.633 82.584C503.201 81.688 501.121 80.408 499.393 78.744C497.665 77.08 496.289 75.032 495.265 72.6C494.305 70.168 493.825 67.384 493.825 64.248ZM503.041 64.152C503.041 66.008 503.329 67.832 503.905 69.624C504.481 71.352 505.313 72.92 506.401 74.328C507.489 75.672 508.801 76.76 510.337 77.592C511.873 78.424 513.601 78.84 515.521 78.84C518.593 78.84 521.121 78.328 523.105 77.304C525.153 76.216 526.657 74.872 527.617 73.272C527.745 72.44 527.809 71.416 527.809 70.2C527.809 68.92 527.809 67.928 527.809 67.224C527.809 64.92 527.553 62.584 527.041 60.216C526.593 57.784 525.857 55.608 524.833 53.688C523.809 51.768 522.465 50.2 520.801 48.984C519.137 47.768 517.153 47.16 514.849 47.16C511.009 47.16 508.065 48.696 506.017 51.768C504.033 54.776 503.041 58.904 503.041 64.152Z" fill="#3E4588"/>
<path d="M197.567 112.841L186.538 101.532C182.609 97.5035 188.551 91.3982 192.486 95.4335L203.515 106.743C207.444 110.771 201.501 116.876 197.567 112.841Z" fill="#FB3732"/>
<path d="M212.777 83.8128H197.18C191.622 83.8128 191.617 75.1875 197.18 75.1875H212.777C218.335 75.1872 218.34 83.8128 212.777 83.8128Z" fill="#FB3732"/>
<path d="M186.538 57.4676L197.567 46.1586C201.496 42.1287 207.448 48.2239 203.515 52.2575L192.486 63.5668C188.556 67.5966 182.604 61.5015 186.538 57.4676Z" fill="#FB3732"/>
<path d="M197.643 122.28C193.486 118.018 193.486 111.082 197.643 106.82C201.799 102.558 208.563 102.558 212.719 106.82C216.876 111.083 216.876 118.018 212.719 122.28C208.563 126.542 201.8 126.543 197.643 122.28Z" fill="#E20600"/>
<path d="M219.339 90.4316C213.461 90.4316 208.679 85.5278 208.679 79.4998C208.679 73.4717 213.461 68.5679 219.339 68.5679C225.218 68.5679 230 73.4717 230 79.4998C230 85.5278 225.218 90.4316 219.339 90.4316Z" fill="#E20600"/>
<path d="M197.643 52.1798C193.486 47.9173 193.486 40.9823 197.643 36.7199C201.799 32.4577 208.563 32.4572 212.719 36.7199C216.876 40.9823 216.876 47.9173 212.719 52.1798C208.563 56.4419 201.799 56.4424 197.643 52.1798Z" fill="#E20600"/>
<path d="M171 56.9668C168.677 56.9668 166.794 55.0358 166.794 52.6541V36.6608C166.794 30.962 175.206 30.9561 175.206 36.6608V52.6545C175.206 55.0362 173.323 56.9668 171 56.9668Z" fill="#E20600"/>
<path d="M171 32.348V56.9671C173.323 56.9671 175.206 55.036 175.206 52.6543V36.6608C175.206 34.2788 173.323 32.348 171 32.348Z" fill="#FB3732"/>
<path d="M166.794 122.339V106.345C166.794 100.647 175.206 100.641 175.206 106.345V122.339C175.206 128.038 166.794 128.044 166.794 122.339Z" fill="#E20600"/>
<path d="M171 102.033V126.652C173.323 126.652 175.206 124.721 175.206 122.339V106.345C175.206 103.964 173.323 102.033 171 102.033Z" fill="#FB3732"/>
<path d="M149.514 63.5668L138.485 52.2575C134.556 48.2286 140.498 42.1235 144.433 46.1586L155.462 57.4676C159.391 61.4968 153.448 67.6013 149.514 63.5668Z" fill="#E20600"/>
<path d="M144.82 83.8128H129.223C123.665 83.8128 123.66 75.1875 129.223 75.1875H144.82C150.377 75.1872 150.383 83.8128 144.82 83.8128Z" fill="#E20600"/>
<path d="M138.485 106.742L149.514 95.433C153.443 91.4029 159.395 97.4983 155.462 101.532L144.433 112.841C140.536 116.838 134.501 110.828 138.485 106.742Z" fill="#E20600"/>
<path d="M171 40.8637C165.122 40.8637 160.339 35.9596 160.339 29.9318C160.339 23.9038 165.121 19 171 19C176.878 19 181.661 23.9038 181.661 29.9318C181.661 35.9594 176.878 40.8637 171 40.8637Z" fill="#FF5E5B"/>
<path d="M171 140C165.122 140 160.339 135.096 160.339 129.068C160.339 123.04 165.122 118.136 171 118.136C176.878 118.136 181.661 123.04 181.661 129.068C181.661 135.096 176.878 140 171 140Z" fill="#FF5E5B"/>
<path d="M171 118.136V140C176.878 140 181.661 135.096 181.661 129.068C181.661 123.041 176.878 118.136 171 118.136Z" fill="#E20600"/>
<path d="M129.281 52.1798C125.114 47.9077 125.114 40.9927 129.281 36.7199C133.437 32.4582 140.201 32.4575 144.357 36.7199H144.357C148.514 40.9823 148.514 47.9173 144.357 52.1798C140.201 56.4419 133.438 56.4424 129.281 52.1798Z" fill="#FF5E5B"/>
<path d="M122.661 90.4316C116.782 90.4316 112 85.5278 112 79.5C112 73.4722 116.782 68.5682 122.661 68.5682C128.539 68.5682 133.321 73.472 133.321 79.5C133.321 85.528 128.539 90.4316 122.661 90.4316Z" fill="#FF5E5B"/>
<path d="M129.281 122.28C125.114 118.008 125.113 111.093 129.281 106.82C133.437 102.558 140.201 102.558 144.357 106.82C148.514 111.083 148.514 118.018 144.357 122.28C140.201 126.542 133.438 126.543 129.281 122.28Z" fill="#FF5E5B"/>
<path d="M171 110.658C154.245 110.658 140.614 96.6806 140.614 79.5C140.614 62.3194 154.245 48.3418 171 48.3418C187.755 48.3418 201.386 62.3194 201.386 79.5C201.386 96.6806 187.755 110.658 171 110.658Z" fill="#FF5E5B"/>
<path d="M171 19V40.8637C176.878 40.8637 181.661 35.9596 181.661 29.9318C181.661 23.904 176.878 19 171 19Z" fill="#E20600"/>
<path d="M171 48.3416V110.658C187.755 110.658 201.386 96.6808 201.386 79.5002C201.386 62.3197 187.755 48.3416 171 48.3416Z" fill="#E20600"/>
<path d="M171 93.4308C163.509 93.4308 157.415 87.1814 157.415 79.5C157.415 71.8186 163.509 65.5692 171 65.5692C178.491 65.5692 184.585 71.8186 184.585 79.5C184.585 87.1814 178.491 93.4308 171 93.4308Z" fill="#E20600"/>
<path d="M171 65.5692V93.4308C178.491 93.4308 184.585 87.1814 184.585 79.5C184.585 71.8186 178.491 65.5692 171 65.5692Z" fill="#FB3732"/>
<path d="M355.372 136.48C354.94 137.32 354.232 138.028 353.248 138.604C352.288 139.156 351.16 139.432 349.864 139.432C348.448 139.432 347.212 139.216 346.156 138.784C345.124 138.328 344.26 137.692 343.564 136.876C342.868 136.036 342.34 135.04 341.98 133.888C341.644 132.712 341.476 131.416 341.476 130C341.476 126.952 342.22 124.624 343.708 123.016C345.196 121.384 347.224 120.568 349.792 120.568C350.968 120.568 352.012 120.676 352.924 120.892C353.86 121.084 354.652 121.348 355.3 121.684C355.228 122.476 355.096 123.364 354.904 124.348C354.712 125.332 354.472 126.148 354.184 126.796H353.212L351.7 122.512C351.532 122.392 351.34 122.308 351.124 122.26C350.908 122.188 350.548 122.152 350.044 122.152C348.412 122.152 347.152 122.752 346.264 123.952C345.376 125.128 344.932 127.132 344.932 129.964C344.932 130.876 345.052 131.764 345.292 132.628C345.556 133.492 345.94 134.272 346.444 134.968C346.972 135.64 347.62 136.18 348.388 136.588C349.18 136.996 350.092 137.2 351.124 137.2C351.964 137.2 352.696 137.08 353.32 136.84C353.944 136.6 354.472 136.312 354.904 135.976L355.372 136.48ZM357.613 130C357.613 128.488 357.805 127.156 358.189 126.004C358.597 124.828 359.173 123.844 359.917 123.052C360.661 122.236 361.549 121.624 362.581 121.216C363.637 120.784 364.801 120.568 366.073 120.568C367.561 120.568 368.845 120.796 369.925 121.252C371.005 121.708 371.881 122.356 372.553 123.196C373.249 124.012 373.753 124.996 374.065 126.148C374.401 127.3 374.569 128.584 374.569 130C374.569 133.024 373.801 135.352 372.265 136.984C370.729 138.616 368.665 139.432 366.073 139.432C364.633 139.432 363.385 139.216 362.329 138.784C361.273 138.328 360.397 137.692 359.701 136.876C359.005 136.036 358.477 135.04 358.117 133.888C357.781 132.712 357.613 131.416 357.613 130ZM361.069 130C361.069 131.08 361.165 132.1 361.357 133.06C361.573 134.02 361.897 134.86 362.329 135.58C362.785 136.276 363.373 136.828 364.093 137.236C364.813 137.644 365.677 137.848 366.685 137.848C367.981 137.848 369.037 137.212 369.853 135.94C370.693 134.668 371.113 132.688 371.113 130C371.113 128.896 371.005 127.876 370.789 126.94C370.597 125.98 370.285 125.152 369.853 124.456C369.421 123.736 368.869 123.172 368.197 122.764C367.525 122.356 366.721 122.152 365.785 122.152C364.369 122.152 363.229 122.788 362.365 124.06C361.501 125.332 361.069 127.312 361.069 130ZM384.819 123.7C384.555 123.844 384.219 124.144 383.811 124.6C383.427 125.032 383.079 125.68 382.767 126.544V137.236C383.247 137.284 383.727 137.38 384.207 137.524C384.687 137.644 385.167 137.836 385.647 138.1V139H377.151V138.1C377.583 137.86 377.991 137.68 378.375 137.56C378.759 137.44 379.143 137.332 379.527 137.236V123.088L377.151 122.8V121.864C377.919 121.528 378.711 121.264 379.527 121.072C380.343 120.856 381.123 120.688 381.867 120.568H382.767V124.384H382.911C383.127 123.904 383.427 123.424 383.811 122.944C384.219 122.464 384.675 122.032 385.179 121.648C385.707 121.264 386.271 120.976 386.871 120.784C387.495 120.568 388.131 120.496 388.779 120.568C388.947 120.88 389.091 121.228 389.211 121.612C389.355 121.972 389.487 122.356 389.607 122.764V123.7H384.819ZM391.328 130C391.328 128.488 391.52 127.156 391.904 126.004C392.312 124.828 392.888 123.844 393.632 123.052C394.376 122.236 395.264 121.624 396.296 121.216C397.352 120.784 398.516 120.568 399.788 120.568C401.276 120.568 402.56 120.796 403.64 121.252C404.72 121.708 405.596 122.356 406.268 123.196C406.964 124.012 407.468 124.996 407.78 126.148C408.116 127.3 408.284 128.584 408.284 130C408.284 133.024 407.516 135.352 405.98 136.984C404.444 138.616 402.38 139.432 399.788 139.432C398.348 139.432 397.1 139.216 396.044 138.784C394.988 138.328 394.112 137.692 393.416 136.876C392.72 136.036 392.192 135.04 391.832 133.888C391.496 132.712 391.328 131.416 391.328 130ZM394.784 130C394.784 131.08 394.88 132.1 395.072 133.06C395.288 134.02 395.612 134.86 396.044 135.58C396.5 136.276 397.088 136.828 397.808 137.236C398.528 137.644 399.392 137.848 400.4 137.848C401.696 137.848 402.752 137.212 403.568 135.94C404.408 134.668 404.828 132.688 404.828 130C404.828 128.896 404.72 127.876 404.504 126.94C404.312 125.98 404 125.152 403.568 124.456C403.136 123.736 402.584 123.172 401.912 122.764C401.24 122.356 400.436 122.152 399.5 122.152C398.084 122.152 396.944 122.788 396.08 124.06C395.216 125.332 394.784 127.312 394.784 130ZM430.522 139H422.782V138.1C423.43 137.764 424.138 137.476 424.906 137.236V128.704C424.906 126.88 424.642 125.44 424.114 124.384C423.586 123.328 422.626 122.8 421.234 122.8C420.634 122.8 420.07 122.908 419.542 123.124C419.038 123.34 418.582 123.64 418.174 124.024C417.79 124.384 417.454 124.804 417.166 125.284C416.878 125.74 416.65 126.22 416.482 126.724V137.236C417.226 137.38 417.946 137.668 418.642 138.1V139H410.866V138.1C411.466 137.788 412.258 137.5 413.242 137.236V123.088L410.866 122.8V121.864C411.49 121.6 412.21 121.36 413.026 121.144C413.842 120.928 414.694 120.736 415.582 120.568H416.482V124.6H416.518C417.022 123.496 417.742 122.548 418.678 121.756C419.638 120.964 420.79 120.568 422.134 120.568C423.094 120.568 423.946 120.688 424.69 120.928C425.458 121.144 426.094 121.54 426.598 122.116C427.102 122.692 427.486 123.472 427.75 124.456C428.014 125.416 428.146 126.64 428.146 128.128V137.236C429.106 137.404 429.898 137.692 430.522 138.1V139ZM445.885 134.284C445.885 134.812 445.897 135.268 445.921 135.652C445.945 136.036 445.969 136.444 445.993 136.876L448.477 137.236V137.992C447.877 138.304 447.205 138.58 446.461 138.82C445.741 139.06 445.045 139.24 444.373 139.36H443.473C443.233 138.808 443.089 138.208 443.041 137.56C442.993 136.888 442.957 136.156 442.933 135.364H442.753C442.657 135.844 442.465 136.336 442.177 136.84C441.913 137.32 441.553 137.752 441.097 138.136C440.665 138.52 440.149 138.832 439.549 139.072C438.949 139.312 438.265 139.432 437.497 139.432C436.033 139.432 434.833 138.988 433.897 138.1C432.985 137.212 432.529 136.048 432.529 134.608C432.529 133.504 432.745 132.604 433.177 131.908C433.633 131.188 434.293 130.624 435.157 130.216C436.021 129.808 437.089 129.52 438.361 129.352C439.633 129.16 441.109 129.016 442.789 128.92C442.885 127.888 442.909 126.964 442.861 126.148C442.837 125.308 442.705 124.6 442.465 124.024C442.249 123.424 441.913 122.968 441.457 122.656C441.025 122.32 440.449 122.152 439.729 122.152C439.393 122.152 439.009 122.176 438.577 122.224C438.169 122.248 437.761 122.344 437.353 122.512L435.661 126.832H434.725C434.485 126.112 434.269 125.368 434.077 124.6C433.909 123.832 433.801 123.076 433.753 122.332C434.665 121.78 435.673 121.348 436.777 121.036C437.905 120.724 439.153 120.568 440.521 120.568C441.745 120.568 442.717 120.748 443.437 121.108C444.181 121.444 444.745 121.888 445.129 122.44C445.513 122.992 445.765 123.604 445.885 124.276C446.005 124.948 446.065 125.62 446.065 126.292C446.065 127.732 446.029 129.124 445.957 130.468C445.909 131.788 445.885 133.06 445.885 134.284ZM438.937 137.2C439.537 137.2 440.065 137.08 440.521 136.84C440.977 136.6 441.361 136.312 441.673 135.976C441.985 135.64 442.237 135.304 442.429 134.968C442.621 134.608 442.753 134.308 442.825 134.068V130.288C441.433 130.288 440.293 130.36 439.405 130.504C438.517 130.648 437.821 130.876 437.317 131.188C436.813 131.5 436.465 131.896 436.273 132.376C436.081 132.832 435.985 133.36 435.985 133.96C435.985 134.992 436.249 135.796 436.777 136.372C437.305 136.924 438.025 137.2 438.937 137.2ZM457.869 139.432L450.849 122.8C450.153 122.56 449.517 122.272 448.941 121.936V121H456.465V121.9C456.153 122.068 455.829 122.236 455.493 122.404C455.181 122.548 454.821 122.68 454.413 122.8L458.589 133.636L459.309 135.868H459.381L459.921 133.6L463.773 122.8C463.389 122.704 463.029 122.584 462.693 122.44C462.381 122.296 462.081 122.128 461.793 121.936V121H467.913V121.936C467.673 122.104 467.373 122.26 467.013 122.404C466.677 122.548 466.293 122.68 465.861 122.8L459.489 139L457.869 139.432ZM477.015 139H469.023V138.1C469.383 137.908 469.755 137.752 470.139 137.632C470.523 137.488 470.943 137.356 471.399 137.236V123.088L469.023 122.8V121.864C469.719 121.576 470.475 121.324 471.291 121.108C472.107 120.892 472.923 120.712 473.739 120.568H474.639V137.236C475.119 137.356 475.551 137.488 475.935 137.632C476.319 137.752 476.679 137.908 477.015 138.1V139ZM470.715 114.88C470.715 114.232 470.919 113.716 471.327 113.332C471.759 112.948 472.323 112.756 473.019 112.756C473.715 112.756 474.267 112.948 474.675 113.332C475.083 113.716 475.287 114.232 475.287 114.88C475.287 115.528 475.083 116.044 474.675 116.428C474.267 116.788 473.715 116.968 473.019 116.968C472.323 116.968 471.759 116.788 471.327 116.428C470.919 116.044 470.715 115.528 470.715 114.88ZM487.159 123.7C486.895 123.844 486.559 124.144 486.151 124.6C485.767 125.032 485.419 125.68 485.107 126.544V137.236C485.587 137.284 486.067 137.38 486.547 137.524C487.027 137.644 487.507 137.836 487.987 138.1V139H479.491V138.1C479.923 137.86 480.331 137.68 480.715 137.56C481.099 137.44 481.483 137.332 481.867 137.236V123.088L479.491 122.8V121.864C480.259 121.528 481.051 121.264 481.867 121.072C482.683 120.856 483.463 120.688 484.207 120.568H485.107V124.384H485.251C485.467 123.904 485.767 123.424 486.151 122.944C486.559 122.464 487.015 122.032 487.519 121.648C488.047 121.264 488.611 120.976 489.211 120.784C489.835 120.568 490.471 120.496 491.119 120.568C491.287 120.88 491.431 121.228 491.551 121.612C491.695 121.972 491.827 122.356 491.947 122.764V123.7H487.159ZM494.963 131.872C494.963 130.36 494.999 128.884 495.071 127.444C495.143 125.98 495.179 124.528 495.179 123.088L492.803 122.8V121.864C493.571 121.576 494.351 121.324 495.143 121.108C495.959 120.892 496.751 120.712 497.519 120.568H498.419C498.419 122.368 498.383 124.156 498.311 125.932C498.239 127.708 498.203 129.472 498.203 131.224C498.203 132.16 498.251 133 498.347 133.744C498.467 134.488 498.659 135.112 498.923 135.616C499.211 136.12 499.595 136.516 500.075 136.804C500.555 137.068 501.167 137.2 501.911 137.2C502.991 137.2 503.891 136.816 504.611 136.048C505.355 135.256 505.931 134.236 506.339 132.988V123.088L503.999 122.8V121.864C504.743 121.576 505.511 121.324 506.303 121.108C507.119 120.892 507.911 120.712 508.679 120.568H509.579V136.948L511.955 137.236V137.992C511.259 138.304 510.551 138.58 509.831 138.82C509.135 139.06 508.403 139.24 507.635 139.36H506.735L506.483 135.076H506.339C506.219 135.58 506.003 136.096 505.691 136.624C505.403 137.128 505.019 137.596 504.539 138.028C504.059 138.436 503.507 138.772 502.883 139.036C502.283 139.3 501.623 139.432 500.903 139.432C499.943 139.432 499.091 139.312 498.347 139.072C497.627 138.856 497.015 138.46 496.511 137.884C496.007 137.308 495.623 136.54 495.359 135.58C495.095 134.596 494.963 133.36 494.963 131.872ZM523.483 134.896C523.483 134.224 523.267 133.66 522.835 133.204C522.427 132.724 521.899 132.28 521.251 131.872C520.603 131.464 519.907 131.068 519.163 130.684C518.443 130.3 517.759 129.856 517.111 129.352C516.463 128.824 515.923 128.224 515.491 127.552C515.083 126.88 514.879 126.052 514.879 125.068C514.879 124.42 515.023 123.82 515.311 123.268C515.623 122.716 516.031 122.248 516.535 121.864C517.039 121.456 517.627 121.144 518.299 120.928C518.971 120.688 519.691 120.568 520.459 120.568C521.755 120.568 522.811 120.64 523.627 120.784C524.467 120.928 525.271 121.132 526.039 121.396C525.943 122.164 525.823 122.944 525.679 123.736C525.559 124.504 525.379 125.296 525.139 126.112H524.239L522.871 122.44C522.583 122.32 522.259 122.248 521.899 122.224C521.539 122.176 521.167 122.152 520.783 122.152C520.351 122.152 519.967 122.236 519.631 122.404C519.319 122.548 519.043 122.74 518.803 122.98C518.587 123.22 518.419 123.496 518.299 123.808C518.179 124.12 518.119 124.432 518.119 124.744C518.119 125.392 518.323 125.956 518.731 126.436C519.163 126.892 519.703 127.324 520.351 127.732C520.999 128.116 521.683 128.5 522.403 128.884C523.147 129.268 523.843 129.7 524.491 130.18C525.139 130.66 525.667 131.224 526.075 131.872C526.507 132.496 526.723 133.252 526.723 134.14C526.723 134.956 526.543 135.688 526.183 136.336C525.847 136.984 525.367 137.536 524.743 137.992C524.143 138.448 523.435 138.796 522.619 139.036C521.827 139.3 520.975 139.432 520.063 139.432C519.031 139.432 518.083 139.336 517.219 139.144C516.355 138.976 515.455 138.724 514.519 138.388C514.567 137.524 514.675 136.696 514.843 135.904C515.011 135.088 515.227 134.308 515.491 133.564H516.391L517.975 137.488C518.239 137.68 518.551 137.788 518.911 137.812C519.295 137.836 519.643 137.848 519.955 137.848C521.011 137.848 521.863 137.56 522.511 136.984C523.159 136.408 523.483 135.712 523.483 134.896Z" fill="#3E4588"/>
</svg>
